<svg xmlns="http://www.w3.org/2000/svg" viewBox="0 0 100 100">
  <defs>
    <linearGradient id="neon" x1="0%" y1="0%" x2="100%" y2="100%">
      <stop offset="0%" stop-color="#c084fc"/>
      <stop offset="50%" stop-color="#e879f9"/>
      <stop offset="100%" stop-color="#f472b6"/>
    </linearGradient>
    <filter id="glow" x="-40%" y="-40%" width="180%" height="180%">
      <feGaussianBlur in="SourceGraphic" stdDeviation="2.5" result="blur"/>
      <feColorMatrix in="blur" type="matrix"
        values="0 0 0 0 0.85
                0 0 0 0 0.27
                0 0 0 0 0.94
                0 0 0 0.6 0" result="coloredBlur"/>
      <feMerge>
        <feMergeNode in="coloredBlur"/>
        <feMergeNode in="SourceGraphic"/>
      </feMerge>
    </filter>
  </defs>
  <rect width="100" height="100" rx="20" fill="#0f172a"/>
  <g filter="url(#glow)" stroke="url(#neon)" fill="none" stroke-linecap="round" stroke-linejoin="round" stroke-width="4">
    <path d="M 10,50 C 30,48 70,52 90,50"/>
    <path d="M 36,49
  C 36,41 32,36 25,35
  C 18,35 14,41 14,50
  C 14,59 19,65 26,65
  C 33,64 37,58 36,49"/>
    <path d="M 50,30
  C 49,31 42,48 39,55
  C 38,57 37,61 38,62
  C 40,63 54,63 61,62
  C 62,61 62,58 61,56
  C 58,49 52,33 50,30"/>
    <path d="M 69,39
  C 72,38 83,38 87,39
  C 88,40 88,55 87,61
  C 86,62 73,63 69,62
  C 68,61 68,43 69,39"/>
  </g>
</svg>